# xmcd
#
# Track frame offsets: 
#        150
#        10016
#        20491
#        29790
#        41167
#        52415
#        65400
#        75147
#        86832
#        96576
#        107333
#        116334
#        126757
#        136582
#
# Disc length: 1944 seconds
#
# Revision: 2
# Processed by: cddbd v1.5.2PL0 Copyright (c) Steve Scherf et al.
# Submitted via: ExactAudioCopy v1.3
#
DISCID=b407960e
DTITLE=Jim and Jesse - Dixie Hoedown - Their Complete Starday Recordings
DYEAR=2003
DGENRE=Bluegrass
TTITLE0=Pardon Me
TTITLE1=Let Me Whisper
TTITLE2=Border Ride
TTITLE3=Hard Hearted
TTITLE4=I'm Changing the Words to My Love Song
TTITLE5=Have You Lost Your Love for Me
TTITLE6=I'll Love Nobody But You
TTITLE7=Dixie Hoedown
TTITLE8=Press on O Pilgrim
TTITLE9=Kneel by the Altar
TTITLE10=Let Me Walk With Thee
TTITLE11=They Can't Love Jesus More Than Me
TTITLE12=Let the Spirit Descend
TTITLE13=Destination in Glory
EXTD=
EXTT0=
EXTT1=
EXTT2=
EXTT3=
EXTT4=
EXTT5=
EXTT6=
EXTT7=
EXTT8=
EXTT9=
EXTT10=
EXTT11=
EXTT12=
EXTT13=
PLAYORDER=
